HIERARCHY
ROOT Hips
{
	OFFSET	0.00	0.00	0.00
	CHANNELS 6 Xposition Yposition Zposition Zrotation Xrotation Yrotation
	JOINT LeftUpLeg
	{
		OFFSET	 0.126116	-0.014019	-0.065224
		CHANNELS 3 Zrotation Xrotation Yrotation
		JOINT LeftLeg
		{
			OFFSET	 0.000000	 0.000000	 0.569914
			CHANNELS 3 Zrotation Xrotation Yrotation
			JOINT LeftFoot
			{
				OFFSET	 0.000000	 0.000000	 0.544423
				CHANNELS 3 Zrotation Xrotation Yrotation
				JOINT LeftToeBase
				{
					OFFSET	 0.000000	 0.000000	 0.207117
					CHANNELS 3 Zrotation Xrotation Yrotation
					End Site
					{
						OFFSET	 0.000000	 0.000000	 0.207117
					}
				}
			}
		}
	}
	JOINT RightUpLeg
	{
		OFFSET	-0.124023	-0.008373	-0.065224
		CHANNELS 3 Zrotation Xrotation Yrotation
		JOINT RightLeg
		{
			OFFSET	 0.000000	 0.000000	 0.570047
			CHANNELS 3 Zrotation Xrotation Yrotation
			JOINT RightFoot
			{
				OFFSET	 0.000000	 0.000000	 0.544354
				CHANNELS 3 Zrotation Xrotation Yrotation
				JOINT RightToeBase
				{
					OFFSET	 0.000000	 0.000000	 0.207540
					CHANNELS 3 Zrotation Xrotation Yrotation
					End Site
					{
						OFFSET	 0.000000	 0.000000	 0.207540
					}
				}
			}
		}
	}
	JOINT Spine
	{
		OFFSET	 0.000184	-0.007763	 0.117403
		CHANNELS 3 Zrotation Xrotation Yrotation
		JOINT Spine1
		{
			OFFSET	 0.000000	 0.000000	 0.137269
			CHANNELS 3 Zrotation Xrotation Yrotation
			JOINT Spine2
			{
				OFFSET	 0.000000	 0.000000	 0.156879
				CHANNELS 3 Zrotation Xrotation Yrotation
				JOINT LeftShoulder
				{
					OFFSET	 0.080501	-0.002496	 0.160144
					CHANNELS 3 Zrotation Xrotation Yrotation
					JOINT LeftArm
					{
						OFFSET	 0.000000	 0.000000	 0.164363
						CHANNELS 3 Zrotation Xrotation Yrotation
						JOINT LeftForeArm
						{
							OFFSET	 0.000000	 0.000000	 0.364576
							CHANNELS 3 Zrotation Xrotation Yrotation
							JOINT LeftHand
							{
								OFFSET	 0.000000	 0.000000	 0.360812
								CHANNELS 3 Zrotation Xrotation Yrotation
								JOINT LeftHandIndex1
								{
									OFFSET	 0.000000	 0.000000	 0.086006
									CHANNELS 3 Zrotation Xrotation Yrotation
									JOINT LeftHandIndex2
									{
										OFFSET	 0.000000	 0.000000	 0.047236
										CHANNELS 3 Zrotation Xrotation Yrotation
										JOINT LeftHandIndex3
										{
											OFFSET	-0.004284	-0.000551	 0.038166
											CHANNELS 3 Zrotation Xrotation Yrotation
											End Site
											{
												OFFSET	-0.004284	-0.000551	 0.038166
											}
										}
									}
								}
							}
						}
					}
				}
				JOINT Neck
				{
					OFFSET	 0.000000	 0.000000	 0.176489
					CHANNELS 3 Zrotation Xrotation Yrotation
					JOINT Head
					{
						OFFSET	 0.000000	-0.001747	 0.077940
						CHANNELS 3 Zrotation Xrotation Yrotation
						End Site
						{
							OFFSET	 0.000000	-0.001747	 0.077940
						}
					}
				}
				JOINT RightShoulder
				{
					OFFSET	-0.080363	 0.000306	 0.159706
					CHANNELS 3 Zrotation Xrotation Yrotation
					JOINT RightArm
					{
						OFFSET	 0.000000	 0.000000	 0.164196
						CHANNELS 3 Zrotation Xrotation Yrotation
						JOINT RightForeArm
						{
							OFFSET	 0.000000	 0.000000	 0.365611
							CHANNELS 3 Zrotation Xrotation Yrotation
							JOINT RightHand
							{
								OFFSET	 0.000000	 0.000000	 0.360648
								CHANNELS 3 Zrotation Xrotation Yrotation
								JOINT RightHandIndex1
								{
									OFFSET	 0.000000	 0.000000	 0.069977
									CHANNELS 3 Zrotation Xrotation Yrotation
									JOINT RightHandIndex2
									{
										OFFSET	 0.000000	 0.000000	 0.052305
										CHANNELS 3 Zrotation Xrotation Yrotation
										JOINT RightHandIndex3
										{
											OFFSET	 0.009002	-0.000782	 0.042196
											CHANNELS 3 Zrotation Xrotation Yrotation
											End Site
											{
												OFFSET	 0.009002	-0.000782	 0.042196
											}
										}
									}
								}
							}
						}
					}
				}
			}
		}
	}
}
MOTION
Frames:    4
Frame Time: 0.03333334
 0.000167	 0.019603	 1.273106	-0.001931	 0.004676	 0.128516	 1.116720	-1.684766	 177.470900	 1.477046	-11.649130	-0.679562	-7.532213	 70.550130	 1.478743	-2.385833	 28.452760	 0.000004	-1.249294	-1.849120	-177.692400	-1.465321	-11.503180	 0.658480	 7.250075	 70.332500	-1.342776	 2.384658	 28.388730	 0.000004	-8.429697	 2.720985	 0.246963	-1.603621	 3.654848	-0.597491	 4.858924	-4.567705	 1.046601	-91.776150	 78.527430	 180.000000	 47.099610	 36.281760	-62.984130	-11.542330	 0.338250	-2.686007	-34.320560	-21.433920	-5.863453	-2.635965	 4.993658	 6.788941	-5.165319	 0.784187	 3.516649	-5.225038	 0.466231	 0.424329	-0.000002	-3.783157	-0.089647	 4.726180	 4.833826	-0.199609	 89.782100	 78.203870	 180.000000	-63.371830	 41.581710	 57.632600	 10.633920	 4.890513	 11.770910	 35.362830	-22.041570	 10.719350	 6.112037	 4.509576	-0.364401	 4.968462	 1.518543	-9.347576	 5.168945	 0.703820	 2.021906
 0.000177	 0.019497	 1.275003	-0.001930	 0.004674	 0.128514	 1.563063	-1.708345	 177.439700	 1.477050	-11.649100	-0.679560	-7.498013	 70.228000	 1.452761	-2.385833	 28.452760	 0.000004	-1.695848	-1.870878	-177.663000	-1.465322	-11.503190	 0.658481	 7.214206	 70.011890	-1.314494	 2.384658	 28.388730	 0.000004	-13.651320	 2.720987	 0.246964	-1.603623	 3.654845	-0.597493	 4.858927	-4.567697	 1.046603	-91.776130	 78.527490	 180.000000	 46.958520	 36.187870	-62.736100	-14.937660	 0.769224	-4.929506	-38.429260	-27.187720	-8.044471	-2.635965	 4.993658	 6.788941	-5.165319	 0.784187	 3.516649	-5.225038	 0.466231	 0.424329	-0.000002	-3.783157	-0.089647	 4.726180	 4.833826	-0.199609	 89.782100	 78.203870	 180.000000	-62.354890	 40.547390	 59.364640	 12.840680	 6.646434	 15.572000	 40.096950	-28.170000	 12.880380	 6.112037	 4.509576	-0.364401	 4.968462	 1.518543	-9.347576	 5.168945	 0.703820	 2.021906
 0.000188	 0.019394	 1.277100	-0.001931	 0.004676	 0.128516	 2.057479	-1.734782	 177.405300	 1.477049	-11.649130	-0.679561	-7.460157	 69.871460	 1.424302	-2.385833	 28.452760	 0.000004	-2.190439	-1.895178	-177.630600	-1.465325	-11.503050	 0.658473	 7.174656	 69.656840	-1.283566	 2.384658	 28.388730	 0.000004	-19.245090	 2.720985	 0.246963	-1.603621	 3.654852	-0.597496	 4.858926	-4.567706	 1.046604	-91.776100	 78.527470	 179.999900	 46.759860	 36.041590	-62.376760	-18.674030	 1.563920	-7.371165	-43.365550	-32.486890	-11.307410	-2.635965	 4.993658	 6.788941	-5.165319	 0.784187	 3.516649	-5.225038	 0.466231	 0.424329	-0.000002	-3.783157	-0.089647	 4.726201	 4.833846	-0.199611	 89.782130	 78.203890	 180.000000	-60.124390	 38.891080	 61.466200	 14.407090	 10.079130	 21.652050	 45.607560	-34.042370	 16.173790	 6.112037	 4.509576	-0.364401	 4.968462	 1.518543	-9.347576	 5.168945	 0.703820	 2.021906
 0.000199	 0.019303	 1.279154	-0.001931	 0.004676	 0.128516	 2.547865	-1.761206	 177.371400	 1.477050	-11.648980	-0.679552	-7.422623	 69.517970	 1.396348	-2.385833	 28.452760	 0.000004	-2.681006	-1.919559	-177.598700	-1.465328	-11.502920	 0.658464	 7.135584	 69.304930	-1.253311	 2.384658	 28.388730	 0.000004	-24.287180	 2.720987	 0.246963	-1.603620	 3.654849	-0.597510	 4.858928	-4.567704	 1.046609	-91.776160	 78.527430	 180.000000	 46.517680	 35.867590	-61.939310	-22.227870	 2.638777	-9.646282	-48.273470	-35.949930	-14.900070	-2.635965	 4.993658	 6.788941	-5.165319	 0.784187	 3.516649	-5.225038	 0.466231	 0.424329	-0.000002	-3.783157	-0.089647	 4.726201	 4.833845	-0.199611	 89.782160	 78.203890	 179.999900	-57.939760	 37.065440	 67.931660	 15.775200	 10.906960	 22.831420	 50.145210	-38.448640	 19.497390	 6.112037	 4.509576	-0.364401	 4.968462	 1.518543	-9.347576	 5.168945	 0.703820	 2.021906
